<svg width="395" height="395" viewBox="0 0 395 395" fill="none" xmlns="http://www.w3.org/2000/svg">
<rect width="395" height="395" fill="black"/>
<rect x="69" y="46" width="252" height="305" fill="white"/>
<rect x="150" y="126" width="171" height="144" fill="black"/>
<rect width="1" height="1" transform="translate(278 171)" fill="white"/>
<rect x="69" y="304" width="252" height="39" fill="white"/>
<rect x="69" y="46" width="252" height="53" fill="white"/>
<rect x="212" y="209.264" width="8" height="54.7249" transform="rotate(-65.233 212 209.264)" fill="black"/>
<rect x="201" y="233.264" width="8" height="54.7249" transform="rotate(-65.233 201 233.264)" fill="black"/>
<path d="M53 140V132L195 132V140L53 140Z" fill="black"/>
<path d="M53 160V152L195 152V160L53 160Z" fill="black"/>
<path d="M53 181V173L195 173V181L53 181Z" fill="black"/>
<path d="M53 202V194L195 194V202L53 202Z" fill="black"/>
<path d="M53 222V214L195 214V222L53 222Z" fill="black"/>
<path d="M53 243V235L195 235V243L53 243Z" fill="black"/>
<path d="M53 264V256H195V264H53Z" fill="black"/>
<rect x="27" y="351" width="307" height="42" transform="rotate(-90 27 351)" fill="black"/>
<path d="M95 352L95 45H137L137 352H95Z" fill="black"/>
<path d="M95 352L95 45H137L137 352H95Z" fill="black"/>
<path d="M174 352L174 45H216L216 352H174Z" fill="black"/>
<path d="M174 352L174 45H216L216 352H174Z" fill="black"/>
<path d="M250 353L250 46H292L292 353H250Z" fill="black"/>
<path d="M250 353L250 46H292L292 353H250Z" fill="black"/>
</svg>
